# xmcd
#
# Track frame offsets: 
#        150
#        15475
#        28357
#        48325
#        62005
#        86517
#        102227
#        123175
#        133820
#        149075
#        163520
#        185010
#        203025
#        217490
#        230280
#
# Disc length: 3538 seconds
#
# Revision: 2
# Processed by: cddbd v1.5.2PL0 Copyright (c) Steve Scherf et al.
# Submitted via: ExactAudioCopy v0.95a4
#
DISCID=de0dd00f
DTITLE=Salena Jones - Romance (XRCD)
DYEAR=2003
DGENRE=Jazz
TTITLE0=A SUMMER LOVE (based on Albinoni themes)
TTITLE1=MY REVERIE (based on Reverie - Debussy)
TTITLE2=IF YOU ARE BUT A DREAM (based on Reverie - Rubenstein)
TTITLE3=NO OTHER LOVE (based on Chanson de L'adieu - Chopin)
TTITLE4=MOONLIGHT LOVE (based on Clair de Lune, No.3 from Suite Bergam
TTITLE4=asque - Debussy)
TTITLE5=E-MAIL FEMALE (based on Humouresque No.7 in G Flat Major - Dvo
TTITLE5=rak)
TTITLE6=DON'T SPEAK OF ME (based on Air on G String/Orchestral Suite N
TTITLE6=o.3 - Bach)
TTITLE7=FULL MOON AND EMPTY ARMS (based on Piano Concerto No.2 - Rachm
TTITLE7=anioff)
TTITLE8=TONIGHT WE LOVE (based on Piano Concerto No.1 - Tchaikovsky)
TTITLE9=DON'T SAY TOO MUCH (based on Clair de Lune, No.3 from Suite Be
TTITLE9=rgamasque - Debussy)
TTITLE10=TILL THE END OF TIME (based on Polonaise No.6 in A Flat Major
TTITLE10=Op.53 - Chopin)
TTITLE11=THESE ARE THE THINGS I LOVE (based on Pathetique No.6 Op.42 S
TTITLE11=ymphony - Tchaikovsky)
TTITLE12=THE STORY OF A STARRY NIGHT (based on Symphony No.6 in B Mino
TTITLE12=r Op.74 1st Movement - Tchaikovsky)
TTITLE13=MOON LOVE (based on Symphony No.5 in E Minor Op.64 - Tchaivos
TTITLE13=ky)
TTITLE14=YOU'VE GOT A FRIEND (based on Moonlight Sonata - Beethoven)
EXTD=YEAR: 2003
EXTT0=
EXTT1=
EXTT2=
EXTT3=
EXTT4=
EXTT5=
EXTT6=
EXTT7=
EXTT8=
EXTT9=
EXTT10=
EXTT11=
EXTT12=
EXTT13=
EXTT14=
PLAYORDER=
